<svg width="509" height="113" viewBox="0 0 509 113" fill="none" xmlns="http://www.w3.org/2000/svg">
<path d="M275.359 25.4985L268.537 6.83422H255.586L248.741 25.4985L241.918 6.83422H228.975L241.918 36.3139H255.586L262.065 21.5741L268.537 36.3139H282.205L295.156 6.83422H282.205L275.359 25.4985ZM314.194 6.07007C303.094 6.09215 294.009 9.29856 294.054 20.4576V22.5993C294.008 33.7372 303.094 36.9648 314.194 36.9878C325.279 36.9648 334.357 33.7372 334.319 22.5993V20.4576C334.319 9.31968 325.294 6.07007 314.194 6.07007ZM322.815 21.8812C322.882 26.7043 318.891 27.5807 314.194 27.6412C309.476 27.5817 305.483 26.7052 305.551 21.8812V21.1545C305.483 16.3536 309.475 15.4771 314.194 15.4176C318.891 15.4781 322.882 16.3536 322.815 21.1545V21.8812ZM366.481 22.4284L353.538 6.78908H337.719V36.3139H349.216V18.2784L365.057 36.3139H378.006V6.78908H366.48V22.4284H366.481ZM413.456 21.5741C413.456 24.5328 411.771 26.9673 408.782 26.9673H396.192V16.1817H408.782C411.771 16.1817 413.456 18.5933 413.456 21.5741ZM384.696 6.83422V36.3139H410.94C419.037 36.4185 425.044 29.5804 424.984 21.5741C425.044 13.5225 419.037 6.72958 410.94 6.83422H384.696ZM428.384 36.3139H462.897V28.7644H439.881V24.9897H462.897V18.1593H439.881V14.3846H462.897V6.83516H428.384V36.3148V36.3139ZM469.002 6.83422V36.3139H480.499V29.1235H490.767L496.317 36.3139H508.563L502.129 28.0454C504.061 27.1545 505.619 25.7913 506.787 24.024C507.971 22.2269 508.563 20.2118 508.563 17.9865C508.653 11.8819 503.492 6.77374 497.418 6.83422H469.002ZM494.52 15.4627C495.92 15.4627 497.043 16.5792 497.043 17.9865C497.043 18.6758 496.803 19.2671 496.295 19.7692C495.815 20.2559 495.223 20.496 494.52 20.496H480.499V15.4627H494.52Z" fill="#B154F0"/>
<path d="M290.885 49.0128V42.4531H245.012V49.0128H238.452V101.431H245.012V107.99H290.885V101.431H297.43V81.7814H277.781V94.8854H258.116V55.5562H277.781V68.6611H297.43V49.0119H290.885V49.0128ZM357.761 49.0128V42.4531H311.887V49.0128H305.328V101.431H311.887V107.99H357.761V101.431H364.305V49.0128H357.761ZM324.991 55.5571H344.656V94.8864H324.991V55.5571ZM425.662 55.5571V49.0128H419.102V42.4531H373.228V107.991H419.102V101.432H425.662V94.8873H432.206V55.5581H425.662V55.5571ZM405.997 94.8864H392.892V55.5571H405.997V62.1168H412.557V88.3258H405.997V94.8854V94.8864ZM459.861 55.5571H499.175V49.0128V42.4531H440.196V107.991H499.175V101.432V94.8873H459.861V81.7833H492.63V68.663H459.861V55.5581V55.5571Z" fill="white"/>
<path fill-rule="evenodd" clip-rule="evenodd" d="M37.1011 76.1846V39.0835H0V76.1846H37.1011Z" fill="#B154F0"/>
<path fill-rule="evenodd" clip-rule="evenodd" d="M161.798 76.1846V39.0835H198.899V76.1846H161.798Z" fill="#B154F0"/>
<path fill-rule="evenodd" clip-rule="evenodd" d="M45.8121 38.9913H153.087V0H45.8121V38.9913Z" fill="#B154F0"/>
<path fill-rule="evenodd" clip-rule="evenodd" d="M86.568 86.3259V112.088H60.8054V86.3259H86.568Z" fill="white"/>
<path fill-rule="evenodd" clip-rule="evenodd" d="M138.095 86.3259V112.088H112.331V86.3259H138.095Z" fill="white"/>
</svg>
