<svg width="729" height="118" viewBox="0 0 729 118" fill="none" xmlns="http://www.w3.org/2000/svg">
<path d="M178.575 28.5192V62.1339H171.846V55.4046H165.116V62.1339H158.403V28.5192H138.231V82.3064H144.96V95.7496H151.674V89.0203H158.403V82.3064H165.116V75.5771H171.846V82.3064H178.575V89.0203H185.289V95.7496H192.018V82.3064H198.732V28.5192H178.576H178.575ZM261.564 34.7383V28.009H214.506V34.7383H207.777V88.5101H214.506V95.2394H261.564V88.5101H268.277V34.7383H261.564ZM227.948 41.4521H248.121V81.7971H227.948V41.4521ZM318.336 28.009V48.1815H311.607V41.4521H304.878V34.7383H298.164V28.009H277.991V95.2394H298.164V61.6237H304.878V68.353H311.607V75.066H318.336V95.2385H338.492V28.0081H318.336V28.009ZM402.378 41.4521V34.7383H395.649V28.009H348.591V95.2394H395.649V88.5101H402.378V81.7971H409.091V41.4521H402.378ZM382.206 81.7971H368.762V41.4521H382.206V48.1815H388.935V75.0669H382.206V81.7962V81.7971ZM438.022 41.4521H478.35V34.7383V28.009H417.849V95.2394H478.35V88.5101V81.7971H438.022V68.3539H471.637V54.8953H438.022V41.4521ZM539.844 35.1053V28.3914H486.056V95.6218H506.229V75.4493H512.943V82.1632H519.672V88.8925H526.401V95.6218H546.558V88.8925H539.844V82.1632H533.114V75.4493H526.401V68.72H539.844V62.0061H546.558V35.1044H539.844V35.1053ZM506.228 55.2778V41.8346H526.401V55.2778H506.228Z" fill="#AD55E9"/>
<path d="M584.578 66.1819V62.8925H561.58V66.1819H558.292V92.4602H561.58V95.7487H584.578V92.4602H587.859V82.6101H578.009V89.1799H568.151V69.4632H578.009V76.033H587.859V66.1828H584.578V66.1819ZM618.105 66.1819V62.8925H595.107V66.1819H591.818V92.4602H595.107V95.7487H618.105V92.4602H621.386V66.1819H618.105ZM601.677 69.4623H611.535V89.1789H601.677V69.4623ZM652.145 69.4623V66.1819H648.856V62.8925H625.858V95.7487H648.856V92.4602H652.145V89.1799H655.426V69.4632H652.145V69.4623ZM642.287 89.1789H635.717V69.4623H642.287V72.7508H645.576V85.8904H642.287V89.1789ZM669.29 69.4623H689V66.1819V62.8925H659.432V95.7487H689V92.4602V89.1799H669.29V82.6101H685.718V76.033H669.29V69.4632V69.4623Z" fill="#AD55E9"/>
<path d="M580.791 59.5549V56.2655H557.793V59.5549H554.504V85.8333H557.793V89.1218H580.791V85.8333H584.072V75.9831H574.222V82.5529H564.364V62.8362H574.222V69.406H584.072V59.5558H580.791V59.5549ZM614.318 59.5549V56.2655H591.32V59.5549H588.031V85.8333H591.32V89.1218H614.318V85.8333H617.599V59.5549H614.318ZM597.89 62.8353H607.748V82.552H597.89V62.8353ZM648.358 62.8353V59.5549H645.069V56.2655H622.071V89.1218H645.069V85.8333H648.358V82.5529H651.639V62.8362H648.358V62.8353ZM638.5 82.552H631.93V62.8353H638.5V66.1238H641.789V79.2635H638.5V82.552ZM665.503 62.8353H685.213V59.5549V56.2655H655.645V89.1218H685.213V85.8333V82.5529H665.503V75.9831H681.931V69.406H665.503V62.8362V62.8353Z" fill="#FEFEFE"/>
<path d="M176.682 22.8384V56.4531H169.953V49.7238H163.223V56.4531H156.51V22.8384H136.338V76.6256H143.067V90.0688H149.781V83.3395H156.51V76.6256H163.223V69.8963H169.953V76.6256H176.682V83.3395H183.396V90.0688H190.125V76.6256H196.839V22.8384H176.683H176.682ZM259.671 29.0575V22.3282H212.613V29.0575H205.884V82.8293H212.613V89.5586H259.671V82.8293H266.384V29.0575H259.671ZM226.055 35.7714H246.228V76.1163H226.055V35.7714ZM316.443 22.3282V42.5007H309.714V35.7714H302.984V29.0575H296.271V22.3282H276.098V89.5586H296.271V55.9429H302.984V62.6722H309.714V69.3852H316.443V89.5577H336.599V22.3273H316.443V22.3282ZM400.485 35.7714V29.0575H393.756V22.3282H346.698V89.5586H393.756V82.8293H400.485V76.1163H407.198V35.7714H400.485ZM380.312 76.1163H366.869V35.7714H380.312V42.5007H387.042V69.3861H380.312V76.1154V76.1163ZM436.129 35.7714H476.457V29.0575V22.3282H415.956V89.5586H476.457V82.8293V76.1163H436.129V62.6731H469.744V49.2145H436.129V35.7714ZM537.951 29.4245V22.7106H484.163V89.941H504.336V69.7685H511.05V76.4824H517.779V83.2117H524.508V89.941H544.665V83.2117H537.951V76.4824H531.221V69.7685H524.507V63.0392H537.951V56.3254H544.665V29.4236H537.951V29.4245ZM504.335 49.597V36.1538H524.507V49.597H504.335Z" fill="#FEFEFE"/>
<path fill-rule="evenodd" clip-rule="evenodd" d="M56.9114 18.7129C60.2784 17.4164 64.3341 16.6556 67.8968 15.9367C71.6678 15.7605 75.3898 15.0122 79.5089 14.9269C83.7547 14.8391 87.3425 15.3013 91.4271 15.5246C95.6434 15.985 99.5448 16.845 103.523 17.8134C105.604 18.2142 114.193 20.9741 115.38 22.041C115.928 23.1029 114.92 39.9324 114.875 42.5085L113.47 62.5895C113.137 65.8606 110.404 98.6162 109.755 101.6C105.108 102.293 100.173 103.542 95.2331 103.749L86.423 104.296L75.4538 104.139L67.3725 103.692C65.2518 103.55 52.197 102.054 51.3509 101.412C49.4416 99.9635 45.9642 52.4928 45.4868 44.2039C45.1826 38.9188 44.4958 29.0786 44.529 24.2771C46.688 22.7567 53.9414 19.3953 56.9132 18.7129H56.9114ZM42.5131 23.123C42.4479 29.1364 43.0023 35.9733 43.3548 42.0587C44.3766 59.7117 45.6919 78.0773 48.2203 95.5196C48.4374 97.018 48.6356 98.403 48.8871 99.9077C49.3174 102.483 48.9498 102.925 50.3423 103.272C56.7859 104.879 70.0263 106.141 76.4367 106.282C82.6012 106.418 88.8516 106.383 94.9716 105.78C98.4289 105.439 109.135 104.295 111.657 103.071C111.773 99.9291 112.372 96.1807 112.7 92.9623C114.43 75.9441 118.179 35.5574 117.338 20.5382C112.769 18.1477 105.409 16.1205 99.7725 14.8548C83.8751 11.2858 64.9005 12.3389 50.1353 19.1269C48.3596 19.9435 43.6208 22.0818 42.5125 23.1218L42.5131 23.123Z" fill="#AD55E9"/>
<path fill-rule="evenodd" clip-rule="evenodd" d="M69.8651 61.0747C64.9739 65.9258 68.2945 74.3803 68.4387 81.7165C68.5911 89.5056 70.8153 95.6468 71.7029 103.205L85.3597 103.373C86.1695 95.8488 87.2628 89.4673 87.2628 81.8012C87.2628 78.1663 86.4016 74.1727 86.2724 70.6C86.1281 66.5975 85.3139 63.7681 83.3846 61.3764C80.9967 59.7694 72.7786 61.0145 69.8657 61.0747H69.8651Z" fill="#201E94"/>
<path fill-rule="evenodd" clip-rule="evenodd" d="M66.1224 13.7822L65.5962 14.2859C65.832 23.6092 65.8057 36.3942 70.1775 44.7773C71.3003 46.9306 75.5611 50.8401 75.5843 50.7962C75.6069 50.7542 75.6747 50.8953 75.7161 50.9487C78.0149 51.9736 82.9318 51.8023 84.6078 50.132C86.1903 47.5728 87.2491 46.0712 88.4866 42.962C89.5705 40.2392 89.9807 36.9844 90.2661 33.8765C90.5722 30.5446 91.17 15.4319 90.1858 13.362C86.0084 13.1337 82.3397 12.6607 77.9973 12.7504C73.7854 12.8376 69.9787 13.6028 66.1231 13.7829L66.1224 13.7822Z" fill="white"/>
<path fill-rule="evenodd" clip-rule="evenodd" d="M65.8637 101.945C65.8474 89.0985 66.5794 54.1061 58.0232 51.0214C63.9807 45.7714 66.5794 46.1772 70.1521 47.1871C69.1636 46.3284 69.084 46.0085 67.9035 45.3248C64.7171 43.4801 61.9008 43.4914 58.217 43.6432C56.3987 40.7052 55.3129 21.5041 55.4039 16.9661C52.4314 17.6485 45.1786 21.0099 43.0197 22.5303C42.9871 27.3324 43.6732 37.1719 43.9775 42.4571C44.4548 50.7467 47.9322 98.2173 49.8421 99.665C50.6883 100.307 63.7436 101.803 65.8637 101.945Z" fill="#1E0048"/>
<path fill-rule="evenodd" clip-rule="evenodd" d="M89.458 46.5843C92.4292 45.6214 84.8051 57.5616 88.4005 57.8997C88.0724 58.2264 92.9222 95.2386 92.216 102.002C97.1567 101.795 103.598 100.546 108.246 99.8531C108.895 96.87 111.628 64.1137 111.961 60.8427L113.366 40.7616C113.41 38.1855 114.419 21.3561 113.871 20.2942C112.685 19.2266 104.095 16.4674 102.014 16.0666C102.747 20.1317 101.994 39.7254 100.041 42.3799C99.596 42.8227 97.7432 43.0824 97.1009 43.2511C96.1117 43.5102 95.2135 43.788 94.267 44.1098C93.34 44.4253 92.4738 44.7966 91.6445 45.1849C90.8963 45.5349 90.0275 45.9564 89.458 46.5849V46.5843Z" fill="#1E0048"/>
<path fill-rule="evenodd" clip-rule="evenodd" d="M103.623 58.0754C102.613 62.4616 98.6434 64.4713 93.4574 64.2888C91.1354 64.2072 88.9563 63.4897 87.3199 62.3801C85.4463 61.11 83.9936 60.228 85.3792 57.3785C90.5602 46.7267 105.515 49.8585 103.623 58.0747V58.0754ZM55.4957 57.6137C55.1425 55.0383 56.4779 53.2676 57.9601 52.1153C59.6016 50.8395 62.1551 50.4237 64.807 50.7505C69.5283 51.3326 72.593 54.248 74.0494 57.8671C75.1007 60.4796 73.3268 61.4857 71.627 62.5514C66.3281 65.8732 56.461 64.6482 55.4957 57.6137ZM52.4492 62.4478C54.164 66.03 59.2754 68.6117 63.895 68.3991C66.4792 68.2799 68.7091 67.5548 70.8197 66.5876C72.8608 65.6524 74.6377 64.0743 76.845 63.6697C78.6671 63.0236 81.1077 63.5831 82.4726 64.502C87.2603 65.8713 85.8678 67.4865 96.2405 67.2249C100.962 67.1057 104.768 65.6505 106.577 61.0046C107.713 58.4624 108.609 56.7193 107.817 53.4125C106.628 48.4416 102.29 45.7627 97.5037 45.3123C93.909 44.9742 92.4287 45.6215 89.4581 46.5843C88.9915 46.9042 88.6515 47.0642 88.2802 47.3458C87.7734 47.7309 87.5394 47.9461 87.1148 48.2679C86.2843 48.897 85.5586 49.4352 84.4641 49.7331C82.8251 51.3671 78.0173 51.5339 75.7699 50.5322C75.0455 50.3133 70.4961 47.5986 70.1517 47.1871C66.579 46.1779 60.6522 42.4414 54.6947 47.6914C50.314 51.5515 49.6768 57.7078 52.4492 62.4478Z" fill="#1E0048"/>
<path fill-rule="evenodd" clip-rule="evenodd" d="M84.4644 49.733C85.5583 49.4351 86.2846 48.8969 87.1151 48.2678C87.5391 47.946 87.7737 47.7308 88.2805 47.3457C88.6518 47.0641 88.9918 46.9041 89.4584 46.5842C90.028 45.9558 90.8967 45.5343 91.645 45.1849C92.4742 44.7966 93.3398 44.4253 94.2675 44.1098C95.2133 43.788 96.1122 43.5102 97.1013 43.2511C97.7436 43.083 99.5965 42.8227 100.042 42.3799C101.994 39.7254 102.748 20.1317 102.014 16.0666C98.0365 15.0981 94.1357 14.2382 89.9194 13.7778C90.8823 15.8025 90.297 30.5802 89.9979 33.8375C89.7187 36.8771 89.3173 40.0597 88.2579 42.7223C87.0473 45.7626 86.0124 47.2303 84.4656 49.733H84.4644Z" fill="#AD55E9"/>
<path fill-rule="evenodd" clip-rule="evenodd" d="M55.4037 16.9654C55.3133 21.5029 56.3985 40.7045 58.2168 43.6425C61.9006 43.4913 64.7169 43.4794 67.9033 45.3241C69.0838 46.0078 69.1634 46.3277 70.1519 47.1864C70.4969 47.5985 75.0463 50.3132 75.7701 50.5315C75.7293 50.48 75.6635 50.3414 75.6415 50.3828C75.6189 50.4261 71.4522 46.6024 70.3545 44.4974C66.0799 36.3 66.1056 23.7992 65.8748 14.6823L66.3891 14.1899C62.8264 14.9081 58.7707 15.6695 55.4037 16.966V16.9654Z" fill="#AD55E9"/>
<path fill-rule="evenodd" clip-rule="evenodd" d="M85.4693 68.9265C85.5903 72.2916 85.5796 77.3666 85.5796 80.7907C85.5796 88.0109 84.98 95.4637 84.2173 102.55L93.0275 102.002C93.2947 99.4423 94.0079 97.0193 94.1383 94.2086C94.3014 89.3137 95.5697 85.6663 94.2763 74.5485C92.049 40.1093 84.7561 49.1679 85.4686 68.9271L85.4693 68.9265Z" fill="#AD55E9"/>
<path fill-rule="evenodd" clip-rule="evenodd" d="M71.4721 68.5953C69.803 78.8312 70.5545 93.5575 72.7335 102.75L63.9233 102.203C63.6561 99.643 62.9429 97.22 62.8124 94.4093C62.6494 89.5144 61.3811 85.867 62.6744 74.7492C64.9024 40.31 72.1846 48.8361 71.4721 68.5953Z" fill="#AD55E9"/>
<path fill-rule="evenodd" clip-rule="evenodd" d="M61.968 44.8061C68.6186 44.8061 74.0097 50.1972 74.0097 56.8478C74.0097 63.4984 68.6186 68.8896 61.968 68.8896C55.3174 68.8896 49.9263 63.4984 49.9263 56.8478C49.9263 50.1972 55.3174 44.8061 61.968 44.8061Z" fill="#1E0048" stroke="#300270" stroke-width="4.00032" stroke-miterlimit="2.61313"/>
<path fill-rule="evenodd" clip-rule="evenodd" d="M62.7473 48.0621C56.8927 47.554 51.6916 53.5611 53.5163 59.1817C57.508 71.4788 73.2298 64.4524 70.9485 54.7284C72.6194 64.11 58.8146 67.5591 56.2661 57.2179C55.2895 53.255 58.706 49.0393 62.7473 48.0621Z" fill="#00FFFF"/>
<path fill-rule="evenodd" clip-rule="evenodd" d="M63.1457 55.0477C64.1737 55.0477 65.0067 55.8806 65.0067 56.9087C65.0067 57.9361 64.1737 58.7697 63.1457 58.7697C62.1183 58.7697 61.2847 57.9367 61.2847 56.9087C61.2847 55.8806 62.1176 55.0477 63.1457 55.0477Z" fill="#E6E6E6"/>
<path fill-rule="evenodd" clip-rule="evenodd" d="M55.4035 16.8651C58.7706 15.5686 62.8263 14.8077 66.389 14.0889C70.1593 13.9126 73.882 13.1643 78.0005 13.079C82.2469 12.9912 85.834 13.4535 89.9186 13.6768C94.1349 14.1372 98.0363 14.9978 102.014 15.9656C104.095 16.3664 112.685 19.1262 113.871 20.1932C114.419 21.2551 113.411 38.0845 113.366 40.6606L111.961 60.7417C111.628 64.0127 108.894 96.769 108.246 99.7522C103.598 100.445 98.6642 101.693 93.7234 101.901L84.9133 102.449L73.9441 102.291L65.8628 101.844C63.7421 101.702 50.6873 100.206 49.8412 99.564C47.9313 98.1157 44.4545 50.6456 43.9765 42.356C43.6723 37.0709 42.9861 27.2308 43.0187 22.4293C45.1777 20.9089 52.4311 17.5475 55.4029 16.8651H55.4035ZM41.0053 21.2752C40.94 27.2885 41.4945 34.1254 41.847 40.2109C42.8694 57.8639 44.1841 76.2295 46.7125 93.6717C46.9295 95.1702 47.1278 96.5551 47.3793 98.0599C47.8096 100.635 47.4426 101.077 48.8345 101.424C55.2787 103.031 68.5191 104.293 74.9289 104.435C81.0934 104.571 87.3438 104.536 93.4638 103.932C96.9211 103.592 107.626 102.447 110.149 101.223C110.266 98.0812 110.865 94.3328 111.192 91.1145C112.923 74.0962 116.672 33.7096 115.83 18.6903C111.261 16.2999 103.902 14.2727 98.2647 13.0069C82.3673 9.43792 63.3927 10.4911 48.6275 17.279C46.8518 18.0957 42.113 20.2339 41.0046 21.2739L41.0053 21.2752Z" fill="white"/>
<path fill-rule="evenodd" clip-rule="evenodd" d="M95.1355 44.3525C88.4849 44.3525 83.0938 49.7443 83.0938 56.3943C83.0938 63.0449 88.4849 68.436 95.1355 68.436C101.786 68.436 107.177 63.0449 107.177 56.3943C107.177 49.7437 101.786 44.3525 95.1355 44.3525Z" fill="#1E0048" stroke="#300270" stroke-width="4.00032" stroke-miterlimit="2.61313"/>
<path fill-rule="evenodd" clip-rule="evenodd" d="M94.3652 47.6079C100.22 47.1061 105.415 53.1182 103.584 58.737C99.5807 71.0296 83.8659 63.9876 86.1572 54.2654C84.4768 63.6451 98.2779 67.1087 100.837 56.77C101.817 52.8077 98.4053 48.5889 94.3646 47.6073L94.3652 47.6079Z" fill="#00FFFF"/>
<path fill-rule="evenodd" clip-rule="evenodd" d="M93.9577 54.5941C92.9296 54.5941 92.0967 55.4271 92.0967 56.4551C92.0967 57.4832 92.9296 58.3162 93.9577 58.3162C94.9857 58.3162 95.8187 57.4832 95.8187 56.4551C95.8187 55.4277 94.9857 54.5941 93.9577 54.5941Z" fill="#E6E6E6"/>
<path fill-rule="evenodd" clip-rule="evenodd" d="M95.0621 83C95.0621 91.5775 88.1085 98.5311 79.5311 98.5311C70.9536 98.5311 64 91.5775 64 83C74.4166 87.73 84.7635 87.1856 95.0621 83Z" fill="white"/>
<path fill-rule="evenodd" clip-rule="evenodd" d="M92.9993 81C92.9993 89.8364 86.0598 97 77.4997 97C68.9395 97 62 89.8364 62 81C71.8177 86.0652 82.165 85.9392 93 81H92.9993Z" fill="#1E0048"/>
</svg>
