<svg width="100" height="100" viewBox="0 0 100 100" fill="none" xmlns="http://www.w3.org/2000/svg">
<path fill-rule="evenodd" clip-rule="evenodd" d="M31.9024 17.2543C34.6327 16.203 37.9214 15.586 40.8104 15.0031C43.8682 14.8602 46.8864 14.2534 50.2265 14.1842C53.6694 14.113 56.5787 14.4879 59.8908 14.6689C63.3098 15.0423 66.4734 15.7396 69.6991 16.5249C71.3867 16.8499 78.3518 19.0879 79.3141 19.953C79.7586 20.8141 78.9408 34.461 78.9047 36.5499L77.7654 52.8334C77.4953 55.4859 75.2787 82.0472 74.7528 84.4667C70.9844 85.0287 66.9831 86.0414 62.9772 86.2092L55.833 86.6532L46.9383 86.5256L40.3852 86.163C38.6655 86.048 28.0796 84.8344 27.3934 84.3141C25.8452 83.1397 23.0254 44.6461 22.6383 37.9247C22.3916 33.639 21.8347 25.6598 21.8616 21.7663C23.6123 20.5334 29.494 17.8077 31.9039 17.2543H31.9024ZM20.2269 20.8304C20.174 25.7066 20.6237 31.2505 20.9095 36.1852C21.738 50.4999 22.8046 65.3923 24.8549 79.5361C25.0309 80.7512 25.1916 81.8742 25.3955 83.0944C25.7445 85.1828 25.4464 85.5409 26.5756 85.8222C31.8006 87.1258 42.5371 88.1486 47.7353 88.2636C52.734 88.3739 57.8024 88.3455 62.7651 87.8562C65.5686 87.58 74.2497 86.6523 76.2949 85.6594C76.3895 83.1117 76.8753 80.0722 77.1408 77.4625C78.5441 63.6625 81.5841 30.9133 80.9015 18.7344C77.1967 16.796 71.229 15.1521 66.6581 14.1257C53.767 11.2317 38.3807 12.0856 26.4077 17.59C24.9678 18.2522 21.1252 19.9861 20.2264 20.8294L20.2269 20.8304Z" fill="#AD55E9"/>
<path fill-rule="evenodd" clip-rule="evenodd" d="M42.4063 51.6051C38.44 55.5388 41.1327 62.3945 41.2497 68.3434C41.3733 74.6595 43.1768 79.6394 43.8965 85.7683L54.9708 85.9041C55.6274 79.8032 56.5139 74.6284 56.5139 68.4121C56.5139 65.4646 55.8156 62.2262 55.7108 59.3291C55.5938 56.0836 54.9336 53.7892 53.3691 51.8498C51.4328 50.5467 44.7688 51.5563 42.4068 51.6051H42.4063Z" fill="#201E94"/>
<path fill-rule="evenodd" clip-rule="evenodd" d="M39.3716 13.2561L38.9448 13.6645C39.1361 21.2247 39.1147 31.5919 42.6598 38.3897C43.5702 40.1358 47.0253 43.306 47.0441 43.2704C47.0624 43.2363 47.1174 43.3508 47.1509 43.394C49.015 44.2251 53.0021 44.0862 54.3612 42.7318C55.6444 40.6566 56.503 39.4389 57.5065 36.9177C58.3854 34.7098 58.718 32.0705 58.9495 29.5503C59.1977 26.8485 59.6824 14.5938 58.8844 12.9153C55.4969 12.7302 52.522 12.3467 49.0008 12.4194C45.5854 12.4901 42.4986 13.1106 39.3721 13.2566L39.3716 13.2561Z" fill="white"/>
<path fill-rule="evenodd" clip-rule="evenodd" d="M39.1617 84.7465C39.1484 74.3294 39.742 45.9544 32.8039 43.453C37.6348 39.1958 39.742 39.5249 42.6391 40.3438C41.8375 39.6475 41.7729 39.3881 40.8157 38.8337C38.2319 37.3378 35.9482 37.347 32.961 37.4701C31.4865 35.0877 30.6061 19.5177 30.6799 15.8378C28.2695 16.3912 22.3883 19.1169 20.6376 20.3498C20.6112 24.2438 21.1676 32.2226 21.4143 36.5083C21.8013 43.2302 24.6211 81.7238 26.1699 82.8977C26.856 83.418 37.4425 84.6316 39.1617 84.7465Z" fill="#1E0048"/>
<path fill-rule="evenodd" clip-rule="evenodd" d="M58.2943 39.855C60.7036 39.0742 54.5213 48.7564 57.4368 49.0305C57.1708 49.2955 61.1034 79.3083 60.5307 84.7928C64.5371 84.6249 69.7602 83.6123 73.5291 83.0502C74.0555 80.6312 76.2716 54.0694 76.5416 51.417L77.681 35.1334C77.7171 33.0445 78.5349 19.3977 78.0909 18.5366C77.1291 17.6709 70.1635 15.4335 68.4759 15.1085C69.0705 18.4048 68.4596 34.2932 66.8763 36.4457C66.5152 36.8048 65.0127 37.0153 64.4919 37.1521C63.6898 37.3622 62.9614 37.5875 62.1939 37.8485C61.4422 38.1043 60.7398 38.4054 60.0674 38.7202C59.4606 39.004 58.7561 39.3458 58.2943 39.8555V39.855Z" fill="#1E0048"/>
<path fill-rule="evenodd" clip-rule="evenodd" d="M69.7804 49.173C68.961 52.7298 65.7425 54.3594 61.5372 54.2114C59.6543 54.1453 57.8873 53.5635 56.5603 52.6637C55.0411 51.6337 53.8631 50.9186 54.9866 48.6079C59.1879 39.9705 71.3149 42.5101 69.7804 49.1725V49.173ZM30.7543 48.7987C30.468 46.7103 31.5508 45.2744 32.7527 44.3401C34.0838 43.3056 36.1544 42.9683 38.3048 43.2333C42.1332 43.7053 44.6184 46.0694 45.7994 49.0042C46.6518 51.1226 45.2135 51.9384 43.8351 52.8026C39.5382 55.4962 31.5371 54.5029 30.7543 48.7987ZM28.284 52.7186C29.6745 55.6234 33.8193 57.7169 37.5653 57.5444C39.6608 57.4478 41.469 56.8598 43.1805 56.0755C44.8356 55.3172 46.2765 54.0375 48.0663 53.7094C49.5439 53.1855 51.5229 53.6392 52.6297 54.3844C56.512 55.4947 55.3829 56.8044 63.7939 56.5923C67.6223 56.4957 70.7087 55.3157 72.176 51.5483C73.0966 49.4868 73.8235 48.0734 73.1816 45.3919C72.2167 41.3611 68.6996 39.1888 64.8183 38.8236C61.9034 38.5494 60.703 39.0743 58.2942 39.855C57.9158 40.1144 57.6401 40.2442 57.339 40.4725C56.928 40.7848 56.7383 40.9593 56.394 41.2202C55.7206 41.7303 55.1321 42.1667 54.2446 42.4083C52.9155 43.7333 49.0169 43.8686 47.1945 43.0563C46.6071 42.8788 42.918 40.6775 42.6388 40.3438C39.7417 39.5255 34.9357 36.4956 30.1048 40.7528C26.5526 43.8828 26.0358 48.875 28.284 52.7186Z" fill="#1E0048"/>
<path fill-rule="evenodd" clip-rule="evenodd" d="M54.2446 42.4083C55.1317 42.1667 55.7206 41.7303 56.3941 41.2201C56.7379 40.9592 56.9281 40.7848 57.3391 40.4725C57.6402 40.2441 57.9159 40.1144 58.2943 39.855C58.7561 39.3453 59.4606 39.0036 60.0673 38.7203C60.7397 38.4054 61.4416 38.1043 62.1939 37.8485C62.9609 37.5875 63.6897 37.3622 64.4918 37.1522C65.0127 37.0159 66.5151 36.8048 66.8763 36.4457C68.4596 34.2932 69.0705 18.4049 68.4759 15.1085C65.2502 14.3232 62.0871 13.6258 58.6681 13.2525C59.4489 14.8943 58.9743 26.8775 58.7317 29.5188C58.5054 31.9835 58.1798 34.5643 57.3208 36.7234C56.3391 39.1887 55.4999 40.3789 54.2456 42.4083H54.2446Z" fill="#AD55E9"/>
<path fill-rule="evenodd" clip-rule="evenodd" d="M30.68 15.8373C30.6068 19.5166 31.4867 35.0871 32.9612 37.4695C35.9483 37.3469 38.2321 37.3372 40.8159 38.8331C41.7731 39.3875 41.8377 39.6469 42.6393 40.3432C42.919 40.6774 46.608 42.8787 47.195 43.0557C47.1619 43.014 47.1085 42.9016 47.0907 42.9351C47.0724 42.9702 43.6936 39.8697 42.8035 38.1627C39.3373 31.5155 39.3581 21.3787 39.171 13.9859L39.588 13.5866C36.6991 14.169 33.4103 14.7864 30.68 15.8378V15.8373Z" fill="#AD55E9"/>
<path fill-rule="evenodd" clip-rule="evenodd" d="M55.0601 57.972C55.1583 60.7008 55.1496 64.8161 55.1496 67.5926C55.1496 73.4474 54.6634 79.4908 54.0449 85.2368L61.189 84.7927C61.4057 82.717 61.984 80.7522 62.0898 78.4731C62.2221 74.5038 63.2505 71.5462 62.2017 62.5308C60.3956 34.6044 54.4818 41.9499 55.0596 57.9726L55.0601 57.972Z" fill="#AD55E9"/>
<path fill-rule="evenodd" clip-rule="evenodd" d="M43.7098 57.7035C42.3564 66.0038 42.9657 77.9452 44.7327 85.3996L37.5886 84.9555C37.3719 82.8798 36.7936 80.915 36.6878 78.6359C36.5556 74.6666 35.5271 71.709 36.5759 62.6936C38.3825 34.7672 44.2876 41.6809 43.7098 57.7035Z" fill="#AD55E9"/>
<path fill-rule="evenodd" clip-rule="evenodd" d="M36.0028 38.4131C41.3957 38.4131 45.7673 42.7847 45.7673 48.1776C45.7673 53.5705 41.3957 57.9422 36.0028 57.9422C30.6099 57.9422 26.2383 53.5705 26.2383 48.1776C26.2383 42.7847 30.6099 38.4131 36.0028 38.4131Z" fill="#1E0048" stroke="#300270" stroke-width="4.00032" stroke-miterlimit="2.61313"/>
<path fill-rule="evenodd" clip-rule="evenodd" d="M36.6347 41.0533C31.8872 40.6413 27.6697 45.5124 29.1493 50.0702C32.3862 60.0417 45.1348 54.3441 43.2849 46.4589C44.6399 54.0664 33.4456 56.8633 31.3791 48.4777C30.5872 45.2642 33.3576 41.8457 36.6347 41.0533Z" fill="#00FFFF"/>
<path fill-rule="evenodd" clip-rule="evenodd" d="M36.9578 46.7178C37.7914 46.7178 38.4669 47.3933 38.4669 48.2269C38.4669 49.06 37.7914 49.736 36.9578 49.736C36.1247 49.736 35.4487 49.0605 35.4487 48.2269C35.4487 47.3933 36.1242 46.7178 36.9578 46.7178Z" fill="#E6E6E6"/>
<path fill-rule="evenodd" clip-rule="evenodd" d="M30.6797 15.7559C33.41 14.7046 36.6987 14.0876 39.5877 13.5048C42.645 13.3618 45.6637 12.755 49.0033 12.6859C52.4467 12.6147 55.3555 12.9895 58.6677 13.1706C62.0866 13.5439 65.2503 14.2418 68.4754 15.0266C70.163 15.3516 77.1286 17.5895 78.0904 18.4547C78.535 19.3158 77.7171 32.9626 77.681 35.0515L76.5417 51.3351C76.2716 53.9875 74.055 80.5493 73.5291 82.9683C69.7602 83.5304 65.7594 84.5425 61.753 84.7109L54.6089 85.1549L45.7141 85.0272L39.161 84.6646C37.4413 84.5497 26.8554 83.3361 26.1692 82.8158C24.6205 81.6413 21.8012 43.1483 21.4136 36.4263C21.1669 32.1407 20.6105 24.1614 20.637 20.2679C22.3876 19.035 28.2693 16.3093 30.6792 15.7559H30.6797ZM19.0043 19.332C18.9514 24.2082 19.401 29.7522 19.6868 34.6868C20.5159 49.0015 21.582 63.894 23.6322 78.0378C23.8082 79.2529 23.9689 80.3759 24.1729 81.5961C24.5218 83.6845 24.2243 84.0425 25.3529 84.3238C30.5785 85.6274 41.315 86.6508 46.5126 86.7652C51.5114 86.8756 56.5798 86.8471 61.5424 86.3578C64.3459 86.0816 73.0266 85.1539 75.0723 84.161C75.1669 81.6134 75.6526 78.5738 75.9181 75.9641C77.3214 62.1642 80.3614 29.415 79.6789 17.236C75.9741 15.2976 70.0064 13.6538 65.4354 12.6274C52.5444 9.73333 37.158 10.5873 25.1851 16.0916C23.7451 16.7538 19.9025 18.4877 19.0038 19.331L19.0043 19.332Z" fill="white"/>
<path fill-rule="evenodd" clip-rule="evenodd" d="M62.8978 38.0453C57.5049 38.0453 53.1333 42.4174 53.1333 47.8098C53.1333 53.2027 57.5049 57.5744 62.8978 57.5744C68.2908 57.5744 72.6624 53.2027 72.6624 47.8098C72.6624 42.4169 68.2908 38.0453 62.8978 38.0453Z" fill="#1E0048" stroke="#300270" stroke-width="4.00032" stroke-miterlimit="2.61313"/>
<path fill-rule="evenodd" clip-rule="evenodd" d="M62.2735 40.685C67.0215 40.2781 71.2339 45.1533 69.7492 49.7095C66.5027 59.6775 53.7597 53.9672 55.6177 46.0836C54.2551 53.6895 65.4463 56.4981 67.5215 48.1145C68.3164 44.9015 65.5495 41.4805 62.273 40.6845L62.2735 40.685Z" fill="#00FFFF"/>
<path fill-rule="evenodd" clip-rule="evenodd" d="M61.9427 46.3501C61.109 46.3501 60.4336 47.0255 60.4336 47.8592C60.4336 48.6928 61.109 49.3683 61.9427 49.3683C62.7763 49.3683 63.4518 48.6928 63.4518 47.8592C63.4518 47.026 62.7763 46.3501 61.9427 46.3501Z" fill="#E6E6E6"/>
<path fill-rule="evenodd" clip-rule="evenodd" d="M62.8384 69.3842C62.8384 76.3396 57.1998 81.9781 50.2444 81.9781C43.289 81.9781 37.6504 76.3396 37.6504 69.3842C46.0971 73.2197 54.4873 72.7782 62.8384 69.3842Z" fill="white"/>
<path fill-rule="evenodd" clip-rule="evenodd" d="M61.1659 67.7623C61.1659 74.9277 55.5387 80.7366 48.5974 80.7366C41.656 80.7366 36.0288 74.9277 36.0288 67.7623C43.9899 71.8697 52.3804 71.7675 61.1664 67.7623H61.1659Z" fill="#1E0048"/>
</svg>
